<svg width="100%" height="100%" viewBox="0 0 1440 800" xmlns="http://www.w3.org/2000/svg">
  <defs>
    <linearGradient id="grad1" x1="0%" y1="0%" x2="100%" y2="100%">
      <stop offset="0%" style="stop-color:#06b6d4;stop-opacity:0.1" />
      <stop offset="100%" style="stop-color:#3b82f6;stop-opacity:0.05" />
    </linearGradient>
    <pattern id="tech-pattern" width="120" height="120" patternUnits="userSpaceOnUse">
      <g fill="none" stroke="url(#grad1)" stroke-width="1" opacity="0.5">
        <path d="M0,0 L120,0 L120,120 Z" />
        <path d="M0,0 L0,120 L120,0 Z" />
        <circle cx="60" cy="60" r="20" fill="none" />
        <circle cx="60" cy="60" r="10" fill="none" stroke-dasharray="2,2" />
      </g>
      <circle cx="60" cy="60" r="2" fill="#3b82f6" />
    </pattern>
  </defs>
  <rect width="100%" height="100%" fill="#0f172a" />
  <rect width="100%" height="100%" fill="url(#tech-pattern)" opacity="0.6" />
  
  <!-- Floating elements -->
  <circle cx="15%" cy="25%" r="8" fill="#3b82f6" opacity="0.1" />
  <circle cx="85%" cy="70%" r="12" fill="#06b6d4" opacity="0.1" />
  <circle cx="20%" cy="80%" r="6" fill="#3b82f6" opacity="0.1" />
  <circle cx="75%" cy="30%" r="10" fill="#06b6d4" opacity="0.1" />
  
  <!-- Decorative lines -->
  <path d="M0,400 Q360,350 720,400 T1440,300" 
        fill="none" 
        stroke="url(#grad1)" 
        stroke-width="2" 
        opacity="0.2" 
        stroke-dasharray="10,5" />
  <path d="M0,500 Q360,550 720,500 T1440,600" 
        fill="none" 
        stroke="url(#grad1)" 
        stroke-width="2" 
        opacity="0.2" 
        stroke-dasharray="5,10" />
</svg>
